<svg width="16" height="16" viewBox="0 0 16 16" fill="none" xmlns="http://www.w3.org/2000/svg">
<path fill-rule="evenodd" clip-rule="evenodd" d="M8 2C6.4087 2 4.88258 2.63214 3.75736 3.75736C2.63214 4.88258 2 6.4087 2 8C2 9.5913 2.63214 11.1174 3.75736 12.2426C4.88258 13.3679 6.4087 14 8 14H11C11.932 14 12.398 14 12.7653 13.848C13.0081 13.7475 13.2286 13.6001 13.4144 13.4144C13.6001 13.2286 13.7475 13.0081 13.848 12.7653C14 12.398 14 11.932 14 11V8C14 6.4087 13.3679 4.88258 12.2426 3.75736C11.1174 2.63214 9.5913 2 8 2ZM5.33333 7.33333C5.33333 7.15652 5.40357 6.98695 5.5286 6.86193C5.65362 6.7369 5.82319 6.66667 6 6.66667H10C10.1768 6.66667 10.3464 6.7369 10.4714 6.86193C10.5964 6.98695 10.6667 7.15652 10.6667 7.33333C10.6667 7.51014 10.5964 7.67971 10.4714 7.80474C10.3464 7.92976 10.1768 8 10 8H6C5.82319 8 5.65362 7.92976 5.5286 7.80474C5.40357 7.67971 5.33333 7.51014 5.33333 7.33333ZM7.33333 10C7.33333 9.82319 7.40357 9.65362 7.5286 9.5286C7.65362 9.40357 7.82319 9.33333 8 9.33333H10C10.1768 9.33333 10.3464 9.40357 10.4714 9.5286C10.5964 9.65362 10.6667 9.82319 10.6667 10C10.6667 10.1768 10.5964 10.3464 10.4714 10.4714C10.3464 10.5964 10.1768 10.6667 10 10.6667H8C7.82319 10.6667 7.65362 10.5964 7.5286 10.4714C7.40357 10.3464 7.33333 10.1768 7.33333 10Z" fill="#F37021"/>
</svg>
