<svg
  width="24"
  height="24"
  viewBox="0 0 24 24"
  fill="none"
  xmlns="http://www.w3.org/2000/svg"
>
  <path
    d="M11.9998 7.11109C11.9998 6.89776 11.9998 6.79198 12.0709 6.72621C12.1438 6.66043 12.2434 6.66843 12.4443 6.68532C13.3397 6.76011 14.2017 7.05992 14.9503 7.55693C15.6989 8.05394 16.3098 8.73202 16.7263 9.52824C17.1427 10.3245 17.3513 11.213 17.3326 12.1113C17.3138 13.0097 17.0684 13.8888 16.6191 14.6669C16.1698 15.4451 15.5312 16.0971 14.7625 16.5625C13.9939 17.0279 13.1201 17.2915 12.2223 17.3289C11.3245 17.3663 10.4319 17.1762 9.62717 16.7764C8.82247 16.3765 8.13184 15.7799 7.61939 15.0418C7.50384 14.8764 7.44695 14.7938 7.46828 14.6987C7.48962 14.6035 7.58206 14.5511 7.76606 14.4444L11.7776 12.128C11.8861 12.0658 11.9403 12.0347 11.9696 11.9831C11.9998 11.9315 11.9998 11.8684 11.9998 11.7431V7.11109Z"
    fill="#8F8F91"
  />
  <path
    d="M12 20C16.4183 20 20 16.4183 20 12C20 7.58172 16.4183 4 12 4C7.58172 4 4 7.58172 4 12C4 16.4183 7.58172 20 12 20Z"
    stroke="#8F8F91"
    strokeWidth="2"
  />
</svg>