<svg width="24" height="24" viewBox="0 0 24 24" fill="none" xmlns="http://www.w3.org/2000/svg">
  <path d="M14 2H6C4.9 2 4 2.9 4 4V20C4 21.1 4.9 22 6 22H18C19.1 22 20 21.1 20 20V8L14 2Z" fill="#2195F2"/>
  <path d="M19.12 7.88L14.12 2.88C13.92 2.68 13.65 2.58 13.38 2.58H13V8H18.42V7.62C18.42 7.35 18.32 7.08 19.12 7.88Z" fill="#0C62B1"/>
  <path d="M14 8V2.5L19.5 8H14Z" fill="#8BC6FC"/>
  <path d="M16 15H8V14H16V15Z" fill="white"/>
  <path d="M16 17H8V16H16V17Z" fill="white"/>
  <path d="M16 13H8V12H16V13Z" fill="white"/>
  <path d="M16 11H8V10H16V11Z" fill="white"/>
</svg> 