<svg width="24" height="24" viewBox="0 0 24 24" fill="none" xmlns="http://www.w3.org/2000/svg">
<path d="M12 4C16.4184 4 20 7.5816 20 12C20 16.4184 16.4184 20 12 20C7.5816 20 4 16.4184 4 12C4 7.5816 7.5816 4 12 4ZM12 5.6C10.3026 5.6 8.67475 6.27428 7.47452 7.47452C6.27428 8.67475 5.6 10.3026 5.6 12C5.6 13.6974 6.27428 15.3253 7.47452 16.5255C8.67475 17.7257 10.3026 18.4 12 18.4C13.6974 18.4 15.3253 17.7257 16.5255 16.5255C17.7257 15.3253 18.4 13.6974 18.4 12C18.4 10.3026 17.7257 8.67475 16.5255 7.47452C15.3253 6.27428 13.6974 5.6 12 5.6ZM12 8C12.8421 8.00032 13.6626 8.26638 14.3446 8.76027C15.0266 9.25417 15.5354 9.9507 15.7984 10.7506C16.0614 11.5506 16.0652 12.4131 15.8094 13.2154C15.5535 14.0176 15.051 14.7187 14.3734 15.2186C13.6958 15.7186 12.8778 15.992 12.0357 15.9998C11.1937 16.0077 10.3707 15.7496 9.68389 15.2623C8.99711 14.775 8.48163 14.0835 8.21088 13.2861C7.94013 12.4888 7.92793 11.6263 8.176 10.8216C8.36314 11.2398 8.68822 11.581 9.09685 11.7881C9.50547 11.9953 9.97285 12.0558 10.4208 11.9596C10.8687 11.8633 11.2699 11.6162 11.5574 11.2595C11.8449 10.9028 12.0011 10.4581 12 10C12.0001 9.61477 11.889 9.23771 11.6799 8.91414C11.4709 8.59057 11.1728 8.33425 10.8216 8.176C11.2034 8.05883 11.6006 7.99951 12 8Z" fill="#8F8F91"/>
</svg>
