<svg
  width="36"
  height="36"
  viewBox="0 0 36 36"
  fill="none"
  xmlns="http://www.w3.org/2000/svg"
>
  <g clipPath="url(#clip0_95_3115)">
    <path
      d="M24.29 23.2905C24.68 22.9005 24.68 22.2705 24.29 21.8805L20.42 18.0005L24.3 14.1205C24.69 13.7305 24.69 13.1005 24.3 12.7105C23.91 12.3205 23.28 12.3205 22.89 12.7105L18.3 17.3005C17.91 17.6905 17.91 18.3205 18.3 18.7105L22.89 23.3005C23.27 23.6805 23.9 23.6805 24.29 23.2905Z"
      fill="#8F8F91"
    />
    <path
      d="M17.7 23.2905C18.09 22.9005 18.09 22.2705 17.7 21.8805L13.83 18.0005L17.71 14.1205C18.1 13.7305 18.1 13.1005 17.71 12.7105C17.32 12.3205 16.69 12.3205 16.3 12.7105L11.71 17.3005C11.32 17.6905 11.32 18.3205 11.71 18.7105L16.3 23.3005C16.68 23.6805 17.31 23.6805 17.7 23.2905Z"
      fill="#8F8F91"
    />
  </g>
  <defs>
    <clipPath id="clip0_95_3115">
      <rect
        width="24"
        height="24"
        fill="white"
        transform="translate(6 6)"
      />
    </clipPath>
  </defs>
</svg>