<svg
  width="36"
  height="36"
  viewBox="0 0 36 36"
  fill="none"
  xmlns="http://www.w3.org/2000/svg"
>
  <g clipPath="url(#clip0_95_3150)">
    <path
      d="M11.7 12.7095C11.31 13.0995 11.31 13.7295 11.7 14.1195L15.58 17.9995L11.7 21.8795C11.31 22.2695 11.31 22.8995 11.7 23.2895C12.09 23.6795 12.72 23.6795 13.11 23.2895L17.7 18.6995C18.09 18.3095 18.09 17.6795 17.7 17.2895L13.12 12.7095C12.73 12.3195 12.09 12.3195 11.7 12.7095Z"
      fill="#8F8F91"
    />
    <path
      d="M18.29 12.7098C17.9 13.0998 17.9 13.7298 18.29 14.1198L22.17 17.9998L18.29 21.8798C17.9 22.2698 17.9 22.8998 18.29 23.2898C18.68 23.6798 19.31 23.6798 19.7 23.2898L24.29 18.6998C24.68 18.3098 24.68 17.6798 24.29 17.2898L19.7 12.6998C19.32 12.3198 18.68 12.3198 18.29 12.7098Z"
      fill="#8F8F91"
    />
  </g>
  <defs>
    <clipPath id="clip0_95_3150">
      <rect
        width="24"
        height="24"
        fill="white"
        transform="translate(6 6)"
      />
    </clipPath>
  </defs>
</svg>