<svg width="24" height="24" viewBox="0 0 24 24" fill="none" xmlns="http://www.w3.org/2000/svg">
  <path d="M14 2H6C4.9 2 4 2.9 4 4V20C4 21.1 4.9 22 6 22H18C19.1 22 20 21.1 20 20V8L14 2Z" fill="#E53935"/>
  <path d="M19.12 7.88L14.12 2.88C13.92 2.68 13.65 2.58 13.38 2.58H13V8H18.42V7.62C18.42 7.35 18.32 7.08 19.12 7.88Z" fill="#B71C1C"/>
  <path d="M14 8V2.5L19.5 8H14Z" fill="#E57373"/>
  <path d="M13 14H11.5V16H10.5V14H9V13H10.5V11H9V10H11.5V12H13V14Z" fill="white"/>
  <path d="M15 16H14V10H16C16.83 10 17.5 10.67 17.5 11.5V13.5C17.5 14.33 16.83 15 16 15H15V16ZM15 14H16V11H15V14Z" fill="white"/>
  <path d="M8 10H6V16H7V14.5H8C8.83 14.5 9.5 13.83 9.5 13V11.5C9.5 10.67 8.83 10 8 10ZM8 13.5H7V11H8V13.5Z" fill="white"/>
</svg> 