<svg width="24" height="24" viewBox="0 0 24 24" fill="none" xmlns="http://www.w3.org/2000/svg">
  <path d="M14 2H6C4.9 2 4 2.9 4 4V20C4 21.1 4.9 22 6 22H18C19.1 22 20 21.1 20 20V8L14 2Z" fill="#FF8A65"/>
  <path d="M19.12 7.88L14.12 2.88C13.92 2.68 13.65 2.58 13.38 2.58H13V8H18.42V7.62C18.42 7.35 18.32 7.08 19.12 7.88Z" fill="#BF360C"/>
  <path d="M14 8V2.5L19.5 8H14Z" fill="#FFAB91"/>
  <path d="M13 10H9V17H10.5V15H13C13.83 15 14.5 14.33 14.5 13.5V11.5C14.5 10.67 13.83 10 13 10ZM13 13.5H10.5V11.5H13V13.5Z" fill="white"/>
  <path d="M15.5 17V10H17V14.5H19V17H15.5Z" fill="white"/>
  <path d="M7.5 17V10H9V14.5H11V17H7.5Z" fill="white"/>
</svg> 