<svg width="24" height="24" viewBox="0 0 24 24" fill="none" xmlns="http://www.w3.org/2000/svg">
<path d="M11.9998 7.11146C11.9998 6.89813 11.9998 6.79235 12.0709 6.72657C12.1438 6.66079 12.2434 6.66879 12.4443 6.68568C13.3397 6.76047 14.2017 7.06029 14.9503 7.55729C15.6989 8.0543 16.3098 8.73239 16.7263 9.5286C17.1427 10.3248 17.3513 11.2134 17.3326 12.1117C17.3138 13.0101 17.0684 13.8891 16.6191 14.6673C16.1698 15.4455 15.5312 16.0975 14.7625 16.5629C13.9939 17.0282 13.1201 17.2918 12.2223 17.3292C11.3245 17.3666 10.4319 17.1766 9.62717 16.7767C8.82247 16.3769 8.13184 15.7802 7.61939 15.0421C7.50384 14.8768 7.44695 14.7941 7.46828 14.699C7.48962 14.6039 7.58206 14.5515 7.76606 14.4448L11.7776 12.1284C11.8861 12.0661 11.9403 12.035 11.9696 11.9835C11.9998 11.9319 11.9998 11.8688 11.9998 11.7435V7.11146Z" fill="#8F8F91"/>
<path d="M12 20C16.4183 20 20 16.4183 20 12C20 7.58172 16.4183 4 12 4C7.58172 4 4 7.58172 4 12C4 16.4183 7.58172 20 12 20Z" stroke="#8F8F91" stroke-width="2"/>
</svg>
