<svg width="16" height="16" viewBox="0 0 16 16" fill="none" xmlns="http://www.w3.org/2000/svg">
<path d="M7.25 1.25V0.75C7.25 0.551088 7.32902 0.360322 7.46967 0.21967C7.61032 0.0790176 7.80109 0 8 0C8.19891 0 8.38968 0.0790176 8.53033 0.21967C8.67098 0.360322 8.75 0.551088 8.75 0.75V1.25C8.75 1.44891 8.67098 1.63968 8.53033 1.78033C8.38968 1.92098 8.19891 2 8 2C7.80109 2 7.61032 1.92098 7.46967 1.78033C7.32902 1.63968 7.25 1.44891 7.25 1.25ZM12.5 3.5C12.5985 3.50008 12.6961 3.48074 12.7871 3.4431C12.8782 3.40546 12.9609 3.35025 13.0306 3.28063L13.5306 2.78063C13.6004 2.71086 13.6557 2.62804 13.6935 2.53689C13.7312 2.44573 13.7507 2.34804 13.7507 2.24938C13.7507 2.15071 13.7312 2.05302 13.6935 1.96186C13.6557 1.87071 13.6004 1.78789 13.5306 1.71812C13.4609 1.64836 13.378 1.59302 13.2869 1.55526C13.1957 1.51751 13.098 1.49807 12.9994 1.49807C12.9007 1.49807 12.803 1.51751 12.7119 1.55526C12.6207 1.59302 12.5379 1.64836 12.4681 1.71812L11.9681 2.21813C11.8626 2.32302 11.7907 2.45694 11.7615 2.60283C11.7323 2.74873 11.7471 2.90001 11.8042 3.03744C11.8612 3.17486 11.9578 3.29223 12.0817 3.37459C12.2056 3.45696 12.3512 3.50062 12.5 3.5ZM2.96937 3.28063C3.11027 3.42152 3.30137 3.50068 3.50062 3.50068C3.69988 3.50068 3.89098 3.42152 4.03188 3.28063C4.17277 3.13973 4.25193 2.94863 4.25193 2.74938C4.25193 2.55012 4.17277 2.35902 4.03188 2.21813L3.53187 1.71812C3.39098 1.57723 3.19988 1.49807 3.00062 1.49807C2.80137 1.49807 2.61027 1.57723 2.46937 1.71812C2.32848 1.85902 2.24932 2.05012 2.24932 2.24938C2.24932 2.44863 2.32848 2.63973 2.46937 2.78063L2.96937 3.28063ZM14.75 11V12.5C14.75 12.8315 14.6183 13.1495 14.3839 13.3839C14.1495 13.6183 13.8315 13.75 13.5 13.75H2.5C2.16848 13.75 1.85054 13.6183 1.61612 13.3839C1.3817 13.1495 1.25 12.8315 1.25 12.5V11C1.24994 10.7118 1.34945 10.4325 1.53167 10.2093C1.7139 9.98605 1.96766 9.83263 2.25 9.775V8.75C2.25 7.22501 2.8558 5.76247 3.93414 4.68414C5.01247 3.6058 6.47501 3 8 3H8.04438C11.1875 3.02375 13.75 5.63125 13.75 8.8125V9.775C14.0323 9.83263 14.2861 9.98605 14.4683 10.2093C14.6506 10.4325 14.7501 10.7118 14.75 11ZM3.75 8.75V9.75H12.25V8.8125C12.25 6.45187 10.3581 4.5175 8.0325 4.5H8C6.87283 4.5 5.79183 4.94777 4.9948 5.7448C4.19777 6.54183 3.75 7.62283 3.75 8.75ZM13.25 11.25H2.75V12.25H13.25V11.25ZM8.525 7.08C8.79397 7.16451 9.03854 7.31275 9.2379 7.5121C9.43725 7.71146 9.58549 7.95603 9.67 8.225C9.72967 8.4148 9.8623 8.57311 10.0387 8.66512C10.2151 8.75713 10.4208 8.7753 10.6106 8.71562C10.8004 8.65595 10.9587 8.52332 11.0507 8.34692C11.1428 8.17052 11.1609 7.9648 11.1012 7.775C10.9443 7.27591 10.6691 6.82209 10.2991 6.45213C9.92916 6.08217 9.47534 5.807 8.97625 5.65C8.78645 5.59033 8.58073 5.60849 8.40433 5.7005C8.22792 5.79251 8.0953 5.95083 8.03563 6.14062C7.97595 6.33042 7.99412 6.53615 8.08613 6.71255C8.17814 6.88895 8.33645 7.02158 8.52625 7.08125L8.525 7.08Z" fill="white"/>
</svg>
