<svg width="25" height="24" viewBox="0 0 25 24" fill="none" xmlns="http://www.w3.org/2000/svg">
<path d="M2.59457 11.0865C2.58258 10.9484 2.59942 10.8094 2.64403 10.6782C2.68863 10.5469 2.76003 10.4264 2.85368 10.3243C2.94733 10.2221 3.0612 10.1405 3.18805 10.0847C3.3149 10.0289 3.45198 10 3.59057 10H5.50007C5.76529 10 6.01964 10.1054 6.20718 10.2929C6.39471 10.4804 6.50007 10.7348 6.50007 11V20.5C6.50007 20.7652 6.39471 21.0196 6.20718 21.2071C6.01964 21.3946 5.76529 21.5 5.50007 21.5H4.41707C4.16678 21.5001 3.92557 21.4063 3.74108 21.2371C3.55658 21.068 3.44222 20.8358 3.42057 20.5865L2.59457 11.0865ZM9.50007 10.6875C9.50007 10.2695 9.76007 9.8955 10.1376 9.7175C10.9621 9.3285 12.3666 8.547 13.0001 7.4905C13.8166 6.1285 13.9706 3.668 13.9956 3.1045C13.9991 3.0255 13.9971 2.9465 14.0076 2.8685C14.1431 1.892 16.0276 3.0325 16.7501 4.2385C17.1426 4.8925 17.1926 5.752 17.1516 6.4235C17.1071 7.1415 16.8966 7.835 16.6901 8.524L16.2501 9.9925H21.6786C21.8331 9.99249 21.9855 10.0283 22.1238 10.0971C22.2622 10.1658 22.3827 10.2658 22.476 10.3889C22.5692 10.5121 22.6326 10.6553 22.6613 10.8071C22.6899 10.9589 22.683 11.1153 22.6411 11.264L19.9561 20.772C19.8968 20.9817 19.7706 21.1663 19.5968 21.2977C19.423 21.4291 19.211 21.5001 18.9931 21.5H10.5001C10.2349 21.5 9.9805 21.3946 9.79296 21.2071C9.60543 21.0196 9.50007 20.7652 9.50007 20.5V10.6875Z" fill="#F37021" stroke="#F37021" stroke-width="2" stroke-linecap="round" stroke-linejoin="round"/>
</svg>
