<svg
  width="48"
  height="48"
  viewBox="0 0 48 48"
  fill="none"
  xmlns="http://www.w3.org/2000/svg"
>
  <path
    d="M34 18C34 15.238 32.88 12.738 31.072 10.93C29.262 9.12 26.762 8 24 8C21.238 8 18.738 9.12 16.928 10.93C15.12 12.738 14 15.238 14 18C14 20.762 15.12 23.262 16.928 25.07C18.738 26.88 21.238 28 24 28C26.762 28 29.262 26.88 31.072 25.07C32.0017 24.1425 32.739 23.0405 33.2415 21.8272C33.7439 20.6139 34.0017 19.3132 34 18ZM12 38C12 40 16.5 42 24 42C31.036 42 36 40 36 38C36 34 31.292 30 24 30C16.5 30 12 34 12 38Z"
    fill="#545456"
  />
</svg>