<svg width="24" height="24" viewBox="0 0 24 24" fill="none" xmlns="http://www.w3.org/2000/svg">
  <path d="M14 2H6C4.9 2 4 2.9 4 4V20C4 21.1 4.9 22 6 22H18C19.1 22 20 21.1 20 20V8L14 2Z" fill="#4CAF50"/>
  <path d="M19.12 7.88L14.12 2.88C13.92 2.68 13.65 2.58 13.38 2.58H13V8H18.42V7.62C18.42 7.35 18.32 7.08 19.12 7.88Z" fill="#2E7D32"/>
  <path d="M14 8V2.5L19.5 8H14Z" fill="#81C784"/>
  <path d="M7 13.5L9 10H10.5L8.5 13.5L10.5 17H9L7 13.5Z" fill="white"/>
  <path d="M10.5 13.5L12.5 10H14L12 13.5L14 17H12.5L10.5 13.5Z" fill="white"/>
  <path d="M14.5 17V10H16V17H14.5Z" fill="white"/>
</svg> 